<?xml version="1.0" standalone="no"?>
<!DOCTYPE svg PUBLIC "-//W3C//DTD SVG 20010904//EN"
 "http://www.w3.org/TR/2001/REC-SVG-20010904/DTD/svg10.dtd">
<svg version="1.0" xmlns="http://www.w3.org/2000/svg"
 width="1080.000000pt" height="552.000000pt" viewBox="0 0 1080.000000 552.000000"
 preserveAspectRatio="xMidYMid meet">
<metadata>
Created by potrace 1.16, written by Peter Selinger 2001-2019
</metadata>
<g transform="translate(0.000000,552.000000) scale(0.100000,-0.100000)"
fill="#000000" stroke="none">
<path d="M1450 5265 l0 -35 48 0 c73 -1 191 -18 252 -37 41 -13 70 -32 113
-73 l57 -56 0 -1820 c0 -1952 2 -1871 -49 -1942 -35 -50 -95 -72 -230 -84
l-121 -12 0 -33 0 -33 440 0 440 0 0 35 c0 21 -5 35 -12 35 -7 1 -59 5 -115
10 -151 13 -206 42 -247 130 l-21 45 -2 1750 c-1 963 0 1746 3 1740 2 -5 327
-849 722 -1875 l719 -1865 40 -3 c37 -3 42 0 51 25 30 87 1455 3889 1458 3892
2 3 3 -821 2 -1830 l-3 -1834 -21 -45 c-44 -93 -107 -123 -283 -135 l-102 -8
3 -31 3 -31 718 -3 717 -2 0 33 0 33 -122 12 c-160 15 -201 34 -243 117 l-30
59 -3 1800 c-2 1240 1 1817 8 1851 26 122 91 164 273 179 l117 10 0 33 0 33
-516 -2 -516 -3 -605 -1620 c-332 -891 -607 -1623 -611 -1627 -4 -4 -293 725
-643 1620 l-636 1627 -526 3 -527 2 0 -35z"/>
<path d="M7022 5098 c3 -32 4 -33 58 -36 174 -8 260 -44 301 -128 l24 -49 3
-837 2 -838 -745 0 -745 0 0 -40 0 -40 745 0 745 0 0 -878 c0 -981 2 -950 -67
-1017 -45 -44 -110 -64 -230 -72 l-93 -6 0 -33 0 -34 695 0 695 0 0 33 0 34
-97 6 c-118 7 -184 28 -227 72 -64 64 -61 -43 -61 1880 0 1664 1 1752 18 1797
22 56 81 112 134 128 21 6 82 14 136 17 l97 6 0 33 0 34 -696 0 -695 0 3 -32z"/>
<path d="M2767 478 c-21 -95 -37 -176 -37 -180 0 -5 7 -8 15 -8 15 0 21 18 52
160 l19 85 49 -128 c27 -70 51 -127 54 -127 3 0 26 54 51 120 25 66 48 120 51
120 4 0 17 -52 30 -115 20 -98 26 -115 42 -115 15 0 18 5 14 23 -3 12 -20 91
-38 175 -18 83 -35 152 -39 152 -3 0 -27 -59 -54 -131 -27 -71 -52 -132 -56
-134 -3 -2 -28 54 -54 124 -27 71 -51 134 -55 140 -4 6 -24 -66 -44 -161z"/>
<path d="M4227 487 c-88 -214 -83 -197 -60 -197 13 0 24 13 34 43 l16 42 79 3
80 3 15 -43 c11 -29 22 -44 36 -46 19 -3 13 15 -51 172 -39 96 -74 178 -77
180 -3 3 -35 -67 -72 -157z"/>
<path d="M3395 626 c-74 -33 -109 -94 -103 -178 7 -94 60 -148 153 -156 68 -6
104 9 149 59 38 41 52 90 42 143 -20 106 -145 175 -241 132z m142 -46 c60 -36
82 -129 46 -190 -19 -34 -80 -70 -117 -70 -67 0 -130 51 -142 116 -9 50 3 83
45 126 34 34 44 38 87 38 31 0 61 -7 81 -20z"/>
<path d="M6472 619 c-128 -64 -129 -248 -1 -314 36 -19 122 -19 158 0 128 66
126 252 -2 314 -55 27 -101 27 -155 0z m154 -38 c62 -38 82 -131 41 -192 -99
-148 -317 -23 -240 138 22 46 67 73 123 73 26 0 58 -8 76 -19z"/>
<path d="M7444 625 c-32 -16 -54 -51 -54 -84 0 -35 39 -70 98 -87 90 -26 112
-40 112 -73 0 -42 -28 -61 -89 -61 -43 0 -56 4 -75 25 -29 31 -56 34 -49 5 20
-75 180 -91 232 -23 47 59 13 123 -77 149 -91 26 -112 40 -112 74 0 59 84 81
138 35 51 -43 76 -21 27 25 -32 30 -107 37 -151 15z"/>
<path d="M4640 461 l0 -171 63 0 c106 0 181 52 196 136 13 72 -12 133 -73 178
-21 16 -46 22 -107 25 l-79 3 0 -171z m143 125 c102 -43 116 -180 25 -240 -13
-8 -48 -16 -78 -18 l-55 -3 -3 138 -3 137 41 0 c22 0 55 -6 73 -14z"/>
<path d="M5940 460 c0 -144 2 -170 15 -170 12 0 15 15 15 75 l0 75 80 0 80 0
0 -75 c0 -68 2 -75 20 -75 19 0 20 7 20 170 0 163 -1 170 -20 170 -18 0 -20
-7 -20 -75 l0 -75 -80 0 -80 0 0 75 c0 60 -3 75 -15 75 -13 0 -15 -26 -15
-170z"/>
<path d="M6930 494 l0 -136 34 -34 c30 -30 40 -34 85 -34 57 0 105 20 121 49
5 11 10 81 10 155 0 114 -2 136 -15 136 -13 0 -15 -21 -15 -129 0 -147 -8
-167 -72 -178 -47 -7 -92 11 -107 43 -6 14 -11 77 -11 144 0 100 -3 120 -15
120 -13 0 -15 -22 -15 -136z"/>
<path d="M7840 460 l0 -170 100 0 c81 0 100 3 100 15 0 11 -18 15 -82 17 l-83
3 0 60 0 60 83 3 c64 2 82 6 82 17 0 12 -17 15 -85 15 l-85 0 0 60 0 60 85 0
c69 0 85 3 85 15 0 12 -18 15 -100 15 l-100 0 0 -170z"/>
</g>
</svg>
